<?xml version="1.0" standalone="no"?>
<!DOCTYPE svg PUBLIC "-//W3C//DTD SVG 20010904//EN"
 "http://www.w3.org/TR/2001/REC-SVG-20010904/DTD/svg10.dtd">
<svg version="1.0" xmlns="http://www.w3.org/2000/svg"
 width="2100.000000pt" height="1575.000000pt" viewBox="0 0 2100.000000 1575.000000"
 preserveAspectRatio="xMidYMid meet">

<g transform="translate(0.000000,1575.000000) scale(0.100000,-0.100000)"
fill="#d267cc" stroke="none">
<path d="M2929 10039 c-46 -29 -172 -104 -279 -168 -108 -64 -447 -267 -754
-451 -497 -297 -567 -343 -630 -405 -83 -82 -127 -159 -158 -276 l-22 -84 -3
-1316 -4 -1316 30 -64 c36 -81 91 -138 160 -169 l54 -25 1056 0 1056 0 65 24
c53 20 476 265 820 476 113 69 475 286 575 345 44 26 185 111 314 188 129 78
235 142 237 142 1 0 57 34 124 75 67 42 134 78 149 81 24 5 81 -49 669 -634
468 -466 654 -646 686 -661 24 -11 73 -25 108 -31 40 -6 417 -10 1034 -10
1053 0 1024 -1 996 51 -7 13 -478 490 -1048 1059 -880 880 -1034 1038 -1032
1059 3 28 39 52 303 207 77 45 248 147 380 227 256 155 794 478 854 513 20 11
88 53 151 91 63 39 176 107 250 150 74 44 277 166 451 271 357 215 505 302
516 302 5 0 15 -5 23 -10 13 -8 16 -229 20 -1852 l5 -1843 28 -57 c29 -58 79
-108 147 -144 34 -18 89 -19 1580 -19 1469 0 1547 1 1595 18 60 22 154 78 397
236 101 66 265 173 365 238 222 143 396 256 608 395 88 57 232 150 320 206 88
57 219 141 290 188 243 159 500 326 618 403 65 42 166 108 225 146 103 67 216
140 437 282 227 147 429 278 585 379 91 60 217 142 280 183 63 41 153 100 200
131 47 32 104 67 127 79 38 19 43 19 57 5 9 -8 16 -25 17 -37 0 -12 0 -671 -1
-1464 -1 -1019 2 -1448 10 -1463 15 -28 48 -25 103 10 26 17 50 30 52 30 2 0
47 27 100 60 53 33 115 71 138 84 23 13 175 103 337 201 162 98 444 267 626
376 333 200 439 270 467 311 9 13 27 36 41 52 36 41 71 119 90 202 14 62 16
227 16 1425 l1 1355 -22 58 c-36 97 -126 166 -239 186 -45 7 -282 10 -760 8
-640 -3 -700 -5 -759 -22 -68 -20 -146 -63 -348 -194 -274 -179 -513 -334
-780 -507 -410 -264 -690 -446 -848 -550 -179 -118 -415 -271 -855 -555 -96
-62 -231 -150 -300 -195 -69 -45 -183 -119 -255 -165 -143 -91 -246 -158 -465
-302 -80 -52 -300 -196 -490 -318 -190 -123 -401 -260 -470 -305 -69 -45 -210
-137 -315 -205 -104 -67 -239 -155 -300 -195 -60 -39 -168 -109 -240 -155 -71
-46 -188 -121 -259 -167 -158 -104 -171 -110 -191 -93 -13 11 -15 209 -15
1816 0 1296 -3 1818 -11 1856 -24 112 -96 199 -192 234 -50 18 -111 19 -1537
22 -1095 2 -1505 0 -1560 -9 -101 -15 -155 -37 -284 -114 -60 -36 -110 -65
-112 -65 -1 0 -50 -29 -109 -65 -58 -36 -110 -65 -115 -65 -4 0 -10 -3 -12 -7
-3 -8 -83 -58 -184 -116 -33 -19 -141 -84 -242 -145 -100 -61 -201 -122 -225
-136 -41 -23 -845 -506 -1947 -1170 -14 -9 -268 -161 -565 -339 -297 -178
-562 -338 -590 -354 -52 -32 -735 -442 -910 -546 -55 -33 -146 -89 -203 -123
-110 -68 -135 -75 -152 -45 -7 13 -10 551 -10 1668 0 1269 -3 1652 -12 1661
-20 20 -42 14 -129 -39z"/>
<path d="M17980 5630 c0 -5 18 -10 40 -10 22 0 40 5 40 10 0 6 -18 10 -40 10
-22 0 -40 -4 -40 -10z"/>
</g>
</svg>
