<?xml version="1.0" standalone="no"?>
<!DOCTYPE svg PUBLIC "-//W3C//DTD SVG 20010904//EN"
 "http://www.w3.org/TR/2001/REC-SVG-20010904/DTD/svg10.dtd">
<svg version="1.0" xmlns="http://www.w3.org/2000/svg"
 width="512.000000pt" height="512.000000pt" viewBox="0 0 512.000000 512.000000"
 preserveAspectRatio="xMidYMid meet">

<g transform="translate(0.000000,512.000000) scale(0.100000,-0.100000)"
fill="#d267cc" stroke="none">
<path d="M2 3918 c1 -662 3 -1185 5 -1163 28 330 112 635 257 930 204 413 501
752 886 1009 357 239 752 375 1220 419 19 2 -506 5 -1167 5 l-1203 2 2 -1202z"/>
<path d="M2805 5109 c307 -30 592 -112 880 -254 283 -140 495 -294 711 -518
195 -201 334 -398 458 -648 139 -278 226 -582 255 -889 5 -49 9 427 10 1118
l1 1202 -1202 -1 c-743 -1 -1169 -5 -1113 -10z"/>
<path d="M2470 4714 c-56 -32 -81 -55 -135 -124 -95 -123 -203 -351 -268 -567
l-25 -83 518 0 518 0 -25 82 c-58 189 -148 392 -227 511 -123 185 -242 246
-356 181z"/>
<path d="M1820 4614 c-336 -122 -673 -351 -901 -615 l-51 -59 396 0 c335 0
396 2 396 14 0 23 74 262 115 371 20 55 61 149 91 209 30 60 53 111 51 112 -1
1 -45 -13 -97 -32z"/>
<path d="M3200 4647 c0 -2 24 -52 54 -112 29 -61 71 -155 91 -210 41 -109 115
-348 115 -371 0 -12 61 -14 396 -14 l396 0 -50 58 c-182 209 -438 404 -697
528 -95 46 -305 129 -305 121z"/>
<path d="M580 3477 c-55 -117 -97 -234 -131 -366 -31 -121 -59 -275 -59 -328
l0 -33 555 0 555 0 0 78 c0 102 26 392 50 567 11 77 20 145 20 152 0 10 -96
13 -476 13 l-475 0 -39 -83z"/>
<path d="M1937 3453 c-23 -147 -44 -337 -51 -463 -4 -58 -9 -135 -12 -172 l-5
-68 691 0 692 0 -6 63 c-3 34 -8 109 -11 167 -7 128 -29 328 -52 473 l-17 107
-606 0 -606 0 -17 -107z"/>
<path d="M3550 3547 c0 -7 9 -75 20 -152 24 -175 50 -465 50 -567 l0 -78 555
0 555 0 0 33 c0 53 -28 207 -59 328 -34 132 -76 249 -131 366 l-39 83 -475 0
c-380 0 -476 -3 -476 -13z"/>
<path d="M2 1203 l-2 -1203 1203 1 c690 1 1166 5 1117 10 -198 19 -451 76
-635 143 -142 52 -402 183 -523 264 -309 206 -577 479 -776 792 -82 128 -202
386 -255 545 -64 193 -107 405 -124 610 -2 22 -4 -501 -5 -1162z"/>
<path d="M5107 2313 c-21 -277 -114 -603 -253 -882 -124 -250 -263 -447 -458
-648 -216 -224 -428 -378 -711 -518 -288 -142 -573 -224 -880 -254 -56 -5 370
-9 1113 -10 l1202 -1 0 1200 c0 660 -2 1200 -4 1200 -1 0 -6 -39 -9 -87z"/>
<path d="M390 2338 c0 -54 28 -208 59 -329 34 -132 76 -249 131 -366 l39 -83
475 0 c380 0 476 3 476 13 0 7 -9 75 -20 152 -24 175 -50 465 -50 568 l0 77
-555 0 -555 0 0 -32z"/>
<path d="M1874 2303 c3 -38 8 -115 12 -173 7 -126 28 -316 51 -462 l17 -108
606 0 607 0 21 148 c22 150 46 389 56 565 l5 97 -690 0 -690 0 5 -67z"/>
<path d="M3620 2293 c0 -103 -26 -393 -50 -568 -11 -77 -20 -145 -20 -152 0
-10 96 -13 476 -13 l475 0 39 83 c55 117 97 234 131 366 31 121 59 275 59 329
l0 32 -555 0 -555 0 0 -77z"/>
<path d="M920 1120 c182 -211 454 -414 718 -537 88 -41 282 -117 282 -110 0 2
-24 52 -54 112 -29 61 -71 155 -91 210 -41 109 -115 348 -115 371 0 12 -61 14
-396 14 l-396 0 52 -60z"/>
<path d="M2067 1098 c66 -218 174 -445 269 -569 165 -215 321 -196 490 58 79
119 169 322 227 511 l25 82 -518 0 -518 0 25 -82z"/>
<path d="M3460 1166 c0 -23 -74 -262 -115 -371 -21 -55 -62 -149 -91 -209 -30
-60 -54 -111 -54 -112 0 -9 207 73 305 120 259 124 515 319 697 529 l50 57
-396 0 c-335 0 -396 -2 -396 -14z"/>
</g>
</svg>
