<svg width="35" height="25" viewBox="0 0 35 25" fill="none" xmlns="http://www.w3.org/2000/svg">
<path d="M32.2388 0.57375C32.0093 0.216125 31.6125 0 31.1877 0H22.5C20.4321 0 18.75 1.68213 18.75 3.75V12.5C18.75 14.5679 20.4321 16.25 22.5 16.25H24.9817C23.8209 19.6119 22.8296 21.2219 19.5312 22.5964C18.9807 22.8259 18.6694 23.4118 18.7866 23.9965C18.9038 24.5801 19.4165 25 20.0122 25H20.0148C26.8959 24.9877 30.8485 22.229 33.6512 15.4859C34.5459 13.3679 35 11.1011 35 8.75C35 5.13425 33.9062 3.16525 32.2388 0.57375ZM12.4377 0H3.75C1.68213 0 0 1.68213 0 3.75V12.5C0 14.5679 1.68213 16.25 3.75 16.25H6.23175C5.07088 19.6119 4.07963 21.2219 0.78125 22.5964C0.23075 22.8259 -0.080625 23.4118 0.036625 23.9965C0.15375 24.5801 0.6665 25 1.26225 25H1.26475C8.14587 24.9877 12.0985 22.229 14.9012 15.4859C15.7959 13.3679 16.25 11.1011 16.25 8.75C16.25 5.13425 15.1562 3.16525 13.4888 0.57375C13.2593 0.216125 12.8625 0 12.4377 0Z" fill="#5C85D6"/>
</svg>
