<svg xmlns="http://www.w3.org/2000/svg"  viewBox="0 0 48 48" width="96px" height="96px">

    <path style="@import url('./src/global/themes/dark-theme.css');fill: var(--main-color-3)" class="card-icon" d="M 11.5 6 C 8.4802259 6 6 8.4802259 6 11.5 L 6 36.5 C 6 39.519774 8.4802259 42 11.5 42 L 36.5 42 C 39.519774 42 42 39.519774 42 36.5 L 42 11.5 C 42 8.4802259 39.519774 6 36.5 6 L 11.5 6 z M 11.5 9 L 36.5 9 C 37.898226 9 39 10.101774 39 11.5 L 39 36.5 C 39 36.632609 38.980071 36.76013 38.960938 36.886719 L 26.814453 25.134766 C 26.035864 24.38142 25.017476 24.005859 24 24.005859 C 22.982524 24.005859 21.966089 24.38142 21.1875 25.134766 L 9.0390625 36.886719 C 9.0199291 36.76013 9 36.632609 9 36.5 L 9 11.5 C 9 10.101774 10.101774 9 11.5 9 z M 30.5 13 C 29.125 13 27.903815 13.569633 27.128906 14.441406 C 26.353997 15.313179 26 16.416667 26 17.5 C 26 18.583333 26.353997 19.686821 27.128906 20.558594 C 27.903815 21.430367 29.125 22 30.5 22 C 31.875 22 33.096185 21.430367 33.871094 20.558594 C 34.646003 19.686821 35 18.583333 35 17.5 C 35 16.416667 34.646003 15.313179 33.871094 14.441406 C 33.096185 13.569633 31.875 13 30.5 13 z M 30.5 16 C 31.124999 16 31.403816 16.180367 31.628906 16.433594 C 31.853997 16.686821 32 17.083333 32 17.5 C 32 17.916667 31.853997 18.313179 31.628906 18.566406 C 31.403816 18.819633 31.124999 19 30.5 19 C 29.875001 19 29.596184 18.819633 29.371094 18.566406 C 29.146003 18.313179 29 17.916667 29 17.5 C 29 17.083333 29.146003 16.686821 29.371094 16.433594 C 29.596184 16.180367 29.875001 16 30.5 16 z M 24.001953 26.988281 C 24.261517 26.988281 24.520104 27.089361 24.728516 27.291016 L 36.800781 38.970703 C 36.701225 38.982362 36.603103 39 36.5 39 L 11.5 39 C 11.396897 39 11.298775 38.982362 11.199219 38.970703 L 23.273438 27.291016 C 23.481848 27.089361 23.742389 26.988281 24.001953 26.988281 z"/>

</svg>